<?xml version="1.0" encoding="utf-8"?>
<!-- Generator: Adobe Illustrator 24.1.1, SVG Export Plug-In . SVG Version: 6.00 Build 0)  -->
<svg version="1.1" id="screen-cart" xmlns="http://www.w3.org/2000/svg" xmlns:xlink="http://www.w3.org/1999/xlink" x="0px"
	 y="0px" viewBox="0 0 1010 1010" style="enable-background:new 0 0 1010 1010;" xml:space="preserve">
<style type="text/css">
	.st0{fill:#FFB933;}
	.st1{fill:#FFFFFF;}
	.st2{fill:#454545;}
	.st3{fill:#5AB3F1;}
</style>
<g id="screen-cart-screen-cart">
	<circle id="screen-cart-label" class="st0" cx="505" cy="505" r="505"/>
	<g id="screen-cart-screen-cart_1_">
		<g id="screen-cart-screen">
			<g>
				<path class="st1" d="M787.8,578.1v58.5c0,10.8-8.7,19.5-19.5,19.5H241.7c-10.8,0-19.5-8.7-19.5-19.5v-58.5"/>
				<path class="st2" d="M768.3,666.3H241.7c-16.3,0-29.6-13.3-29.6-29.6v-58.5c0-5.6,4.5-10.1,10.1-10.1c5.6,0,10.1,4.5,10.1,10.1
					v58.5c0,5.2,4.2,9.4,9.4,9.4h526.6c5.2,0,9.4-4.2,9.4-9.4v-58.5c0-5.6,4.5-10.1,10.1-10.1c5.6,0,10.1,4.5,10.1,10.1v58.5
					C797.9,653,784.6,666.3,768.3,666.3L768.3,666.3z"/>
			</g>
			<g>
				<path class="st3" d="M222.2,578.1V295.3c0-10.8,8.7-19.5,19.5-19.5h526.6c10.8,0,19.5,8.7,19.5,19.5v282.8"/>
				<path class="st2" d="M787.8,588.2c-5.6,0-10.1-4.5-10.1-10.1V295.3c0-5.2-4.2-9.4-9.4-9.4H241.7c-5.2,0-9.4,4.2-9.4,9.4v282.8
					c0,5.6-4.5,10.1-10.1,10.1c-5.6,0-10.1-4.5-10.1-10.1V295.3c0-16.3,13.3-29.6,29.6-29.6h526.6c16.3,0,29.6,13.3,29.6,29.6v282.8
					C797.9,583.7,793.4,588.2,787.8,588.2L787.8,588.2z"/>
			</g>
			<g>
				<rect x="436.7" y="656.2" class="st1" width="136.5" height="78"/>
				<path class="st2" d="M573.3,744.3H436.7c-5.6,0-10.1-4.5-10.1-10.1v-78c0-5.6,4.5-10.1,10.1-10.1h136.5
					c5.6,0,10.1,4.5,10.1,10.1v78C583.4,739.8,578.8,744.3,573.3,744.3L573.3,744.3z M446.8,724.1h116.3v-57.8H446.8V724.1
					L446.8,724.1z"/>
			</g>
			<g>
				<path class="st2" d="M787.8,588.2H222.2c-5.6,0-10.1-4.5-10.1-10.1c0-5.6,4.5-10.1,10.1-10.1h565.6c5.6,0,10.1,4.5,10.1,10.1
					C797.9,583.7,793.4,588.2,787.8,588.2L787.8,588.2z"/>
			</g>
			<g>
				<path class="st2" d="M612.3,744.3H397.7c-5.6,0-10.1-4.5-10.1-10.1c0-5.6,4.5-10.1,10.1-10.1h214.6c5.6,0,10.1,4.5,10.1,10.1
					C622.4,739.8,617.9,744.3,612.3,744.3L612.3,744.3z"/>
			</g>
			<path class="st2" d="M514.8,614.7c0,5.4-4.4,9.8-9.8,9.8c-5.4,0-9.8-4.4-9.8-9.8c0-5.4,4.4-9.8,9.8-9.8
				C510.4,605,514.8,609.3,514.8,614.7z"/>
		</g>
		<g id="screen-cart-cart">
			<g>
				<polyline class="st1" points="426.2,346.5 613.5,346.5 589.1,444.3 426.2,444.3 				"/>
				<polygon class="st2" points="597,454.4 416.1,454.4 416.1,434.2 581.2,434.2 600.6,356.6 416.1,356.6 416.1,336.4 626.5,336.4 
									"/>
			</g>
			<g>
				<polygon class="st2" points="599.2,486.9 416.1,486.9 416.1,324 383.5,324 383.5,303.8 436.3,303.8 436.3,466.7 599.2,466.7 
									"/>
			</g>
			<path class="st2" d="M442.5,501.3c13.5,0,24.4,10.9,24.4,24.4c0,13.5-10.9,24.4-24.4,24.4c-13.5,0-24.4-10.9-24.4-24.4
				C418.1,512.2,429,501.3,442.5,501.3z"/>
			<path class="st2" d="M572.8,501.3c13.5,0,24.4,10.9,24.4,24.4c0,13.5-10.9,24.4-24.4,24.4c-13.5,0-24.4-10.9-24.4-24.4
				C548.4,512.2,559.3,501.3,572.8,501.3z"/>
			<g>
				<polygon class="st2" points="599.6,423.6 420.5,423.6 420.5,403.4 599.6,403.4 				"/>
			</g>
			<g>
				<polygon class="st2" points="604.3,390 419.1,390 419.1,369.8 604.3,369.8 				"/>
			</g>
		</g>
	</g>
</g>
</svg>
